HIERARCHY
ROOT Hips
{
	OFFSET -72.282547 91.867981 178.233994
	CHANNELS 6 Xposition Yposition Zposition Zrotation Yrotation Xrotation 
	JOINT LeftUpLeg
	{
		OFFSET 0.103457 1.857823 10.548503
		CHANNELS 3 Zrotation Yrotation Xrotation
		JOINT LeftLeg
		{
			OFFSET 43.499996 -0.000034 0.000002
			CHANNELS 3 Zrotation Yrotation Xrotation
			JOINT LeftFoot
			{
				OFFSET 42.372192 0.000011 -0.000001
				CHANNELS 3 Zrotation Yrotation Xrotation
				JOINT LeftToe
				{
					OFFSET 17.300007 0.000003 0.000000
					CHANNELS 3 Zrotation Yrotation Xrotation
					End Site
					{
						OFFSET 0.000000 0.000000 0.000000
					}
				}
			}
		}
	}
	JOINT RightUpLeg
	{
		OFFSET 0.103457 1.857824 -10.548503
		CHANNELS 3 Zrotation Yrotation Xrotation
		JOINT RightLeg
		{
			OFFSET 43.500046 -0.000027 0.000015
			CHANNELS 3 Zrotation Yrotation Xrotation
			JOINT RightFoot
			{
				OFFSET 42.372261 0.000004 0.000017
				CHANNELS 3 Zrotation Yrotation Xrotation
				JOINT RightToe
				{
					OFFSET 17.299995 -0.000004 -0.000002
					CHANNELS 3 Zrotation Yrotation Xrotation
					End Site
					{
						OFFSET 0.000000 0.000000 0.000000
					}
				}
			}
		}
	}
	JOINT Spine
	{
		OFFSET 6.901969 -2.603723 -0.000001
		CHANNELS 3 Zrotation Yrotation Xrotation
		JOINT Spine1
		{
			OFFSET 12.588095 -0.000003 0.000006
			CHANNELS 3 Zrotation Yrotation Xrotation
			JOINT Spine2
			{
				OFFSET 12.343204 0.000006 -0.000008
				CHANNELS 3 Zrotation Yrotation Xrotation
				JOINT Neck
				{
					OFFSET 25.832893 -0.000006 0.000003
					CHANNELS 3 Zrotation Yrotation Xrotation
					JOINT Head
					{
						OFFSET 11.766609 -0.000008 0.000000
						CHANNELS 3 Zrotation Yrotation Xrotation
						End Site
						{
							OFFSET 0.000000 0.000000 0.000000
						}
					}
				}
				JOINT LeftShoulder
				{
					OFFSET 19.745899 -1.480379 6.000108
					CHANNELS 3 Zrotation Yrotation Xrotation
					JOINT LeftArm
					{
						OFFSET 11.284125 -0.000006 -0.000023
						CHANNELS 3 Zrotation Yrotation Xrotation
						JOINT LeftForeArm
						{
							OFFSET 33.000050 -0.000002 0.000027
							CHANNELS 3 Zrotation Yrotation Xrotation
							JOINT LeftHand
							{
								OFFSET 25.200008 0.000014 0.000008
								CHANNELS 3 Zrotation Yrotation Xrotation
								End Site
								{
									OFFSET 0.000000 0.000000 0.000000
								}
							}
						}
					}
				}
				JOINT RightShoulder
				{
					OFFSET 19.746098 -1.480379 -6.000071
					CHANNELS 3 Zrotation Yrotation Xrotation
					JOINT RightArm
					{
						OFFSET 11.284139 -0.000009 -0.000009
						CHANNELS 3 Zrotation Yrotation Xrotation
						JOINT RightForeArm
						{
							OFFSET 33.000092 0.000008 0.000008
							CHANNELS 3 Zrotation Yrotation Xrotation
							JOINT RightHand
							{
								OFFSET 25.199780 0.000137 0.000422
								CHANNELS 3 Zrotation Yrotation Xrotation
								End Site
								{
									OFFSET 0.000000 0.000000 0.000000
								}
							}
						}
					}
				}
			}
		}
	}
}
MOTION
Frames: 15
Frame Time: 0.033333
-266.224487 86.585114 -266.170502 80.040193 -8.929601 58.842189 140.457362 -0.133804 179.501388 -45.910722 -2.110261 -15.428892 75.370707 12.921964 7.096093 21.454558 0.003109 1.8e-05 142.497431 1.093089 -162.589101 -105.777897 -5.830919 -2.862234 84.056898 4.940814 12.435937 21.454557 -0.003095 0.0 14.898418 -1.006705 3.733574 19.705367 -2.634868 7.242324 19.389672 -2.591316 7.257966 -15.439598 -3.600771 7.030989 -31.244612 1.353469 4.812858 177.084115 -84.97937 1.367378 13.63569 35.471262 -49.42315 -84.029857 -4.840294 2.420603 -0.602449 -22.643085 26.549591 49.980562 81.030516 -128.703659 19.059672 -14.733686 13.705037 -58.056307 21.360168 -2.461861 12.416468 3.002548 -1.104131 
-264.086914 88.358994 -268.791107 81.801563 -9.445026 59.202707 141.368155 0.930606 177.172115 -36.499124 -1.838224 -15.143451 67.298646 13.986435 8.637906 21.45456 0.003116 1.5e-05 142.13039 -0.220902 -162.31476 -92.669124 -5.881793 -3.464912 81.596138 7.068295 18.241308 21.454541 -0.003084 0.0 14.963442 -0.739973 2.948629 19.867335 -1.975427 5.726799 19.550751 -1.941004 5.738547 -16.043761 -2.29619 7.694609 -30.826013 -1.125967 7.296334 -179.586314 -84.890283 -1.987623 13.371227 35.682189 -48.65474 -83.090023 -5.799611 2.446252 -1.839381 -24.836438 27.174758 53.224304 81.790942 -125.470001 17.114113 -14.905761 13.505786 -58.284285 22.005346 -2.51527 13.30176 -0.146694 -3.214305 
-262.105194 89.352501 -271.885498 84.974855 -10.458248 63.855193 139.022067 3.838701 176.590429 -30.599258 -3.021024 -12.837148 58.336236 11.593276 4.443819 21.454557 0.003104 1.8e-05 141.413384 0.388511 -160.523721 -78.774689 -6.863719 -4.678508 78.579393 9.10607 20.482472 21.45455 -0.003092 2e-06 14.575265 -0.065732 1.645488 19.132079 -0.402766 3.257312 18.814513 -0.383224 3.259659 -15.087977 -1.853567 7.964907 -30.747282 -4.486953 9.512951 170.475197 -85.561602 8.007827 9.766334 35.890363 -49.990062 -81.704697 -7.545697 2.507367 2.964784 -28.643938 16.628179 58.00157 83.662803 -120.648748 15.419116 -15.799879 17.466938 -59.501261 21.826411 -2.549155 12.8661 0.13034 -7.835021 
-261.183197 88.823692 -274.44519 86.349628 -11.670556 70.57032 135.078028 5.191188 178.349708 -33.146058 -4.945716 -7.705839 59.074559 2.539111 -7.795387 21.454558 0.003109 1.9e-05 142.877585 -0.267799 -159.950558 -66.756534 -7.17168 -7.723328 76.522352 11.546737 19.969912 21.454551 -0.003088 -2e-06 14.028333 0.881144 0.559343 18.054869 1.664119 1.249556 17.736712 1.671496 1.239464 -14.650211 0.714675 7.559218 -31.013362 -9.639752 12.883433 116.763955 -86.844025 61.852103 4.984501 37.257869 -53.726896 -80.335059 -8.88598 2.541124 8.314852 -27.998716 10.468009 79.110611 86.454643 -99.481316 13.45862 -18.8863 25.112691 -62.268874 22.297269 -2.690326 10.962283 5.269409 -7.977003 
-260.569794 86.373787 -275.901886 85.487693 -10.573514 77.333102 131.453602 5.178999 177.609302 -44.483069 -6.485544 -2.882823 67.912967 -4.308021 -18.509123 21.45456 0.00311 2.1e-05 149.146292 -2.214407 -159.789994 -59.761048 -4.910045 -7.04805 82.450813 4.718933 -1.212052 21.454557 -0.003104 2e-06 13.801119 1.987258 -0.126501 17.600858 3.970502 0.051316 17.281934 3.970602 0.027288 -15.691796 2.556083 7.6159 -28.173504 -13.475488 15.241912 86.585004 -83.180045 92.347463 2.496619 36.232316 -55.279736 -79.258348 -9.102319 2.509474 8.216117 -24.631583 15.803646 169.117629 86.459888 -9.327588 9.617162 -21.947899 36.127855 -67.568097 20.455945 -2.774833 9.76177 16.323628 -2.503604 
-259.371704 83.260513 -276.640411 85.586888 -7.466192 81.091182 129.092174 5.801299 172.817392 -58.22724 -3.253839 -2.514605 78.08066 -3.755341 -21.715931 21.454558 0.003102 1.4e-05 156.780326 0.655585 -153.344044 -56.542703 -3.660089 -5.421101 101.583792 3.483552 -3.146611 21.454553 -0.003096 1e-06 13.608086 2.489268 -0.479563 17.207014 5.022023 -0.583318 16.887595 5.018268 -0.613721 -14.813929 2.0492 9.094864 -24.064222 -14.718207 16.368267 84.108404 -81.745548 94.937205 0.246032 34.27406 -48.722253 -80.465079 -7.712568 2.464992 7.514233 -20.973134 23.484461 -171.81095 82.745071 9.826832 5.416588 -26.961282 47.407459 -74.314398 15.510936 -2.708349 10.16258 28.728636 7.870844 
-256.867096 82.03978 -277.086212 84.855941 -5.031558 76.178316 128.112547 0.572396 171.809966 -69.291333 -1.306073 -1.795684 82.276985 -2.300017 -16.330429 21.454555 0.003107 1.5e-05 159.606959 0.768097 -149.439007 -55.217722 -7.506941 -6.656853 106.75669 4.555838 -1.71049 21.454555 -0.0031 -1e-06 13.522453 2.530467 0.734643 17.08759 4.924444 1.837393 16.768384 4.935316 1.807549 -10.048518 -1.151237 11.547139 -22.725199 -15.28993 17.629917 91.317116 -82.364288 87.720884 -2.010646 38.595364 -42.817223 -86.593248 -3.478889 2.438685 4.147697 -12.127926 34.381192 179.471949 83.119516 1.014073 3.978642 -37.419075 54.964639 -80.882103 9.653781 -2.579818 10.932718 34.364772 9.36686 
-253.812897 82.570702 -277.4552 86.671808 -3.154388 72.367794 127.490563 -0.15739 174.657691 -77.554319 -0.896331 -1.887819 81.606766 -1.672707 -13.310819 21.45456 0.003112 1.8e-05 158.851417 2.891297 -158.83217 -55.889413 -5.055583 -4.996093 105.118408 3.472083 -0.129693 21.45455 -0.003101 -1e-06 13.549452 2.361827 1.36051 17.159677 4.495459 3.059211 16.840999 4.513704 3.031971 -9.048239 -4.273035 14.751395 -21.369077 -14.942371 19.34919 122.211564 -82.366317 56.799918 -3.478032 45.522302 -36.936594 -94.49928 -0.847388 2.607494 -0.457509 -14.504719 41.002841 164.85305 82.324427 -13.796184 3.165148 -46.787428 55.341485 -83.188487 7.071786 -2.499802 7.194157 37.860637 5.842668 
-250.614105 85.228043 -277.116913 90.752505 -0.527049 72.912993 128.443497 4.697914 177.566982 -83.661573 -0.799543 -1.917001 77.736869 -1.190687 -9.790989 21.45456 0.003121 1.9e-05 161.520382 8.930303 -158.256125 -50.975778 -6.762759 -6.188926 100.886204 4.507639 2.148128 21.454553 -0.003097 -2e-06 13.541723 1.91142 1.287408 17.12422 3.610963 2.845324 16.805843 3.627924 2.823458 -6.820014 -5.150455 15.447076 -20.890461 -15.547611 20.064733 138.076331 -79.444956 41.071973 -3.358416 54.462716 -30.029664 -97.884158 -0.46411 2.732434 -8.357851 -18.504967 49.748882 168.168096 79.644439 -10.548308 4.343587 -53.040486 43.932002 -81.142115 9.194395 -2.55899 11.03708 40.089355 10.351111 
-247.085602 89.46344 -277.311401 96.070231 0.833312 71.89231 128.126904 8.731403 174.867295 -88.593468 0.208661 -4.427945 76.475026 1.190337 -7.239335 21.454557 0.003104 1.8e-05 162.698712 13.797608 -164.665643 -43.003571 -5.138535 -3.660569 92.096413 3.174362 3.333421 21.454551 -0.003087 0.0 13.527671 1.120532 1.69985 17.075843 1.977602 3.547085 16.75819 1.998833 3.535081 -6.656184 -6.689683 14.887113 -20.125683 -16.19937 19.109944 148.957956 -77.859396 30.17121 -4.91216 62.932584 -26.065725 -95.60797 -1.051426 2.671431 -10.744488 -19.93849 50.490124 174.12958 77.255191 -4.562977 5.452792 -58.556462 34.632741 -79.740232 10.68634 -2.602583 15.194912 40.183656 17.292724 
-243.679993 93.529831 -278.449707 100.795308 0.101772 68.785408 125.013212 9.576005 168.538483 -93.886387 2.149314 -8.21468 78.198173 4.282539 -5.86599 21.454567 0.003099 2e-05 157.622912 15.5459 -169.796809 -39.855298 -5.82199 1.526907 78.894313 0.344061 4.625836 21.454551 -0.003096 1e-06 13.561735 0.401734 2.290396 17.120134 0.459774 4.614916 16.803131 0.487474 4.612043 -11.278242 -11.209946 16.132145 -18.774716 -13.319537 16.850019 151.67282 -77.03629 27.468156 -0.161526 65.209749 -18.312367 -90.782729 -1.925373 2.5165 -11.302618 -25.168077 46.451058 168.620787 76.701228 -10.202917 4.990666 -63.972501 33.451009 -81.23758 10.06504 -2.624059 9.96306 44.026935 9.860138 
-240.661407 96.361816 -279.939514 104.229793 -0.740179 65.900083 121.629878 9.462094 163.960344 -99.691296 3.085934 -10.730152 77.742265 6.307879 -4.670945 21.454558 0.003112 1.4e-05 149.403708 14.426804 -171.327686 -45.525912 -8.14395 6.184612 71.133367 -1.441105 8.400246 21.45456 -0.003096 3e-06 13.772494 -0.179092 2.121366 17.51999 -0.677632 4.190967 17.202786 -0.652471 4.194962 -17.413661 -12.124396 18.469542 -17.836274 -12.955832 17.639156 156.282583 -77.287053 22.765369 7.442117 63.184072 -11.406332 -86.445702 -4.181262 2.481182 -13.203856 -26.058427 47.260913 159.96803 77.834315 -18.966298 -6.552556 -67.812017 45.430559 -84.018184 7.88439 -2.592813 1.473903 45.662929 -1.162004 
-238.013199 97.910751 -281.316803 105.556209 -0.291896 64.552623 120.543208 9.800305 162.010694 -105.053596 3.320552 -11.135176 74.256799 6.411097 -4.93791 21.454558 0.003108 1.8e-05 144.398764 13.720008 -173.140869 -49.194513 -7.816435 -4.042695 68.7227 6.613075 9.540148 21.45455 -0.003083 1e-06 14.211075 -0.44078 1.675367 18.393887 -1.142416 3.259279 18.076282 -1.122865 3.266092 -19.514452 -9.34591 19.615904 -18.031068 -13.927007 20.09858 159.016817 -78.127467 19.937822 12.647988 59.119406 -9.233486 -81.386314 -7.56509 2.494814 -11.118594 -27.798074 44.641707 151.898968 79.239634 -27.078625 -18.589975 -68.60897 60.380559 -88.155872 3.181923 -2.446209 -2.644223 44.616916 -6.564403 
-235.775696 97.367554 -282.033813 108.625198 1.927009 65.151897 121.08084 12.511606 158.910539 -110.04531 3.257913 -10.341651 72.556656 5.589085 -5.58405 21.454555 0.003115 8e-06 144.897955 14.590199 -177.824494 -43.610177 -6.233077 -10.431387 73.088563 16.390707 26.587859 21.454555 -0.003087 2e-06 14.588789 -1.045047 0.905117 19.152441 -2.225452 1.624832 18.834218 -2.215737 1.63823 -19.273819 -7.890666 19.84248 -19.690739 -13.800572 21.235092 156.056026 -80.545033 22.807209 14.592363 56.018036 -10.88648 -73.784573 -12.425492 2.506486 -5.575798 -30.482923 36.315201 149.730533 79.399576 -29.265718 -23.306139 -65.615271 68.640526 -92.212191 0.148369 -2.413853 -5.590278 43.280184 -11.485112 
-233.730606 96.773903 -282.782013 108.901602 2.596533 65.631021 122.059155 13.071401 158.454542 -113.495594 3.752497 -10.656153 69.99459 4.763467 -8.417056 21.454558 0.003108 1.4e-05 147.081908 12.008703 179.513969 -41.505612 -4.488026 -9.751626 66.586585 14.322096 18.297604 21.45455 -0.00309 0.0 14.787223 -1.120975 0.760668 19.552052 -2.354263 1.321026 19.233753 -2.346376 1.335213 -18.620165 -7.698782 19.772414 -20.42949 -13.641765 21.387506 147.584679 -82.372799 31.255229 12.645776 52.026507 -16.605769 -63.667957 -16.972458 2.407305 1.867887 -28.962977 25.200984 146.939581 80.465885 -32.018786 -24.987062 -61.324444 73.982997 -94.55037 -0.569155 -2.467721 -7.457088 41.916475 -14.158671 
